<svg width="758" height="312" viewBox="0 0 758 312" fill="none" xmlns="http://www.w3.org/2000/svg">
<path d="M110.001 179.463C110.595 183.262 110.809 186.667 110.637 189.979C110.317 196.144 108.664 202.162 105.419 209.925L104.316 212.567L107.082 213.304L110.637 214.252C108.853 225.376 105.585 231.829 99.4338 243.209L97.1965 247.349L101.879 246.886L103.368 246.725C106.761 246.324 109.601 245.727 112.287 244.611C113.662 244.04 114.964 243.344 116.26 242.505C115.093 247.686 112.7 252.47 109.221 260.967L107.994 263.961L111.201 264.392C137.116 267.869 153.973 268.698 172.228 261.085C172.816 270.865 173.727 276.42 176.649 284H105.822C106.327 277.921 105.794 263.098 103.156 255.06C102.782 253.919 102.014 250.49 100.111 248.967C98.2058 247.444 84.9473 251.646 78.7864 251.614C75.8634 251.6 74.2037 250.791 73.8362 250.49C73.4004 250.135 71.9327 249.601 71.552 247.38C71.1712 245.159 69.864 240.25 69.2668 239.067C68.6692 237.884 64.6973 236.401 63.9358 235.259C63.1742 234.117 63.5295 233.196 64.3166 232.593C69.7117 229.781 69.2487 228.604 60.509 227.263C59.4211 227.127 57.8429 226.882 57.4621 225.739C57.0814 224.597 58.742 222.348 57.4621 219.647C55.3207 215.128 48.7292 213.728 45.6584 211.639C44.7123 210.995 44.8762 210.46 44.8967 210.127C44.8967 210.127 45.1464 209.299 45.6584 208.685C50.1309 202.797 52.2312 199.228 53.2737 191.088C53.2603 191.079 53.247 191.07 53.2336 191.062C53.5791 188.806 53.8846 186.147 54.0198 183.687H69.1008V183.503C69.8855 184.812 70.779 186.151 71.7981 187.585L72.3 188.291L73.1311 188.535L99.0246 196.152L100.81 196.677L101.825 195.116C104.233 191.417 106.362 188.4 108.122 184.484C108.803 182.968 109.425 181.328 110.001 179.463ZM138.95 47.9113C172.215 27.503 220.972 23.4697 258.519 32.6799C252.329 60.2467 243.706 71.2898 221.604 85.2287C236.681 107.385 246.472 138.638 249.76 178.903C251.03 201.854 253.257 213.892 261.505 229.922C258.078 230.677 255.266 230.857 252.142 230.377C248.76 229.858 244.877 228.546 239.342 226.115L237.143 225.151L236.09 227.309C230.21 239.356 224.096 246.78 216.047 252.012C208.746 256.758 199.682 259.812 187.322 262.682C188.459 258.993 188.985 255.687 188.663 250.71L188.392 246.5L184.829 248.76C180.304 251.631 176.051 253.941 171.916 255.777L171.091 256.138C154.582 263.24 139.411 262.989 115.097 259.86C118.921 250.794 121.64 245.231 122.028 236.899L122.306 230.928L117.86 234.922C115.006 237.486 112.755 239.002 110.368 239.993C109.094 240.523 107.735 240.92 106.163 241.236C111.318 231.478 114.313 224.509 115.915 212.749L116.213 210.565L114.082 209.996L111.104 209.201C113.796 202.315 115.31 196.412 115.63 190.238C115.99 183.304 114.837 176.212 112.426 167.212L107.542 167.464C106.389 174.666 105.101 179.01 103.562 182.434C102.221 185.417 100.673 187.758 98.6545 190.831L75.3821 183.986C73.4587 181.22 72.175 178.997 71.2444 176.669C70.2373 174.15 69.5949 171.391 69.0793 167.529L64.1008 167.86V178.687H49.0959V181.187C49.0959 183.177 48.9055 185.527 48.6457 187.707C2.17634 149.589 47.5172 46.8915 129.957 47.9113C129.855 43.7155 132.621 41.3774 136.811 37.2492C138.244 42.1415 138.419 44.4765 137.572 47.9113H138.95Z" fill="url(#paint0_linear_0_1)"/>
<path d="M69.6013 98.0651L103.872 81.3104" stroke="#F5F5F5" stroke-width="2"/>
<path d="M69.6013 98.0651L103.872 115.581" stroke="#F5F5F5" stroke-width="2"/>
<path d="M69.6013 98.0651L103.872 149.852" stroke="#F5F5F5" stroke-width="2"/>
<path d="M69.6013 132.336L103.872 81.3104" stroke="#F5F5F5" stroke-width="2"/>
<path d="M69.6013 132.336L103.872 115.581" stroke="#F5F5F5" stroke-width="2"/>
<path d="M69.6013 132.336L103.872 149.852" stroke="#F5F5F5" stroke-width="2"/>
<path d="M103.872 81.3104H138.143" stroke="#F5F5F5" stroke-width="2"/>
<path d="M103.872 81.3104L138.143 115.581" stroke="#F5F5F5" stroke-width="2"/>
<path d="M103.872 81.3104L138.143 149.852" stroke="#F5F5F5" stroke-width="2"/>
<path d="M103.872 115.581L138.143 81.3104" stroke="#F5F5F5" stroke-width="2"/>
<path d="M103.872 115.581H138.143" stroke="#F5F5F5" stroke-width="2"/>
<path d="M103.872 115.581L138.143 149.852" stroke="#F5F5F5" stroke-width="2"/>
<path d="M103.872 149.852L138.143 81.3104" stroke="#F5F5F5" stroke-width="2"/>
<path d="M103.872 149.852L138.143 115.581" stroke="#F5F5F5" stroke-width="2"/>
<path d="M103.872 149.852H138.143" stroke="#F5F5F5" stroke-width="2"/>
<path d="M138.143 81.3104H172.414" stroke="#F5F5F5" stroke-width="2"/>
<path d="M138.143 81.3104L172.414 115.581" stroke="#F5F5F5" stroke-width="2"/>
<path d="M138.143 81.3104L172.414 149.852" stroke="#F5F5F5" stroke-width="2"/>
<path d="M138.143 115.581L172.414 81.3104" stroke="#F5F5F5" stroke-width="2"/>
<path d="M138.143 115.581H172.414" stroke="#F5F5F5" stroke-width="2"/>
<path d="M138.143 115.581L172.414 149.852" stroke="#F5F5F5" stroke-width="2"/>
<path d="M138.143 149.852L172.414 81.3104" stroke="#F5F5F5" stroke-width="2"/>
<path d="M138.143 149.852L172.414 115.581" stroke="#F5F5F5" stroke-width="2"/>
<path d="M138.143 149.852H172.414" stroke="#F5F5F5" stroke-width="2"/>
<path d="M172.414 81.3104L206.685 98.0651" stroke="#F5F5F5" stroke-width="2"/>
<path d="M172.414 81.3104L206.685 132.336" stroke="#F5F5F5" stroke-width="2"/>
<path d="M172.414 81.3104L206.685 166.607" stroke="#F5F5F5" stroke-width="2"/>
<path d="M172.414 115.581L206.685 98.0651" stroke="#F5F5F5" stroke-width="2"/>
<path d="M172.414 115.581L206.685 132.336" stroke="#F5F5F5" stroke-width="2"/>
<path d="M172.414 115.581L206.685 166.607" stroke="#F5F5F5" stroke-width="2"/>
<path d="M172.414 149.852L206.685 98.0651" stroke="#F5F5F5" stroke-width="2"/>
<path d="M172.414 149.852L206.685 132.336" stroke="#F5F5F5" stroke-width="2"/>
<path d="M172.414 149.852L206.685 166.607" stroke="#F5F5F5" stroke-width="2"/>
<path d="M69.6013 104.158C72.9662 104.158 75.6939 101.43 75.6939 98.0651C75.6939 94.7002 72.9662 91.9725 69.6013 91.9725C66.2365 91.9725 63.5087 94.7002 63.5087 98.0651C63.5087 101.43 66.2365 104.158 69.6013 104.158Z" fill="#F5F5F5"/>
<path d="M69.6013 138.429C72.9662 138.429 75.6939 135.701 75.6939 132.336C75.6939 128.971 72.9662 126.243 69.6013 126.243C66.2365 126.243 63.5087 128.971 63.5087 132.336C63.5087 135.701 66.2365 138.429 69.6013 138.429Z" fill="#F5F5F5"/>
<path d="M103.872 87.403C107.237 87.403 109.965 84.6753 109.965 81.3104C109.965 77.9456 107.237 75.2178 103.872 75.2178C100.507 75.2178 97.7797 77.9456 97.7797 81.3104C97.7797 84.6753 100.507 87.403 103.872 87.403Z" fill="#F5F5F5"/>
<path d="M103.872 121.674C107.237 121.674 109.965 118.946 109.965 115.581C109.965 112.216 107.237 109.489 103.872 109.489C100.507 109.489 97.7797 112.216 97.7797 115.581C97.7797 118.946 100.507 121.674 103.872 121.674Z" fill="#F5F5F5"/>
<path d="M103.872 155.945C107.237 155.945 109.965 153.217 109.965 149.852C109.965 146.487 107.237 143.76 103.872 143.76C100.507 143.76 97.7797 146.487 97.7797 149.852C97.7797 153.217 100.507 155.945 103.872 155.945Z" fill="#F5F5F5"/>
<path d="M138.143 87.403C141.508 87.403 144.236 84.6753 144.236 81.3104C144.236 77.9456 141.508 75.2178 138.143 75.2178C134.778 75.2178 132.051 77.9456 132.051 81.3104C132.051 84.6753 134.778 87.403 138.143 87.403Z" fill="#F5F5F5"/>
<path d="M138.143 121.674C141.508 121.674 144.236 118.946 144.236 115.581C144.236 112.216 141.508 109.489 138.143 109.489C134.778 109.489 132.051 112.216 132.051 115.581C132.051 118.946 134.778 121.674 138.143 121.674Z" fill="#F5F5F5"/>
<path d="M138.143 155.945C141.508 155.945 144.236 153.217 144.236 149.852C144.236 146.487 141.508 143.76 138.143 143.76C134.778 143.76 132.051 146.487 132.051 149.852C132.051 153.217 134.778 155.945 138.143 155.945Z" fill="#F5F5F5"/>
<path d="M172.414 87.403C175.779 87.403 178.507 84.6753 178.507 81.3104C178.507 77.9456 175.779 75.2178 172.414 75.2178C169.049 75.2178 166.321 77.9456 166.321 81.3104C166.321 84.6753 169.049 87.403 172.414 87.403Z" fill="#F5F5F5"/>
<path d="M172.414 121.674C175.779 121.674 178.507 118.946 178.507 115.581C178.507 112.216 175.779 109.489 172.414 109.489C169.049 109.489 166.321 112.216 166.321 115.581C166.321 118.946 169.049 121.674 172.414 121.674Z" fill="#F5F5F5"/>
<path d="M172.414 155.945C175.779 155.945 178.507 153.217 178.507 149.852C178.507 146.487 175.779 143.76 172.414 143.76C169.049 143.76 166.321 146.487 166.321 149.852C166.321 153.217 169.049 155.945 172.414 155.945Z" fill="#F5F5F5"/>
<path d="M206.685 104.158C210.05 104.158 212.777 101.43 212.777 98.0651C212.777 94.7002 210.05 91.9725 206.685 91.9725C203.32 91.9725 200.592 94.7002 200.592 98.0651C200.592 101.43 203.32 104.158 206.685 104.158Z" fill="#F5F5F5"/>
<path d="M206.685 138.429C210.05 138.429 212.777 135.701 212.777 132.336C212.777 128.971 210.05 126.243 206.685 126.243C203.32 126.243 200.592 128.971 200.592 132.336C200.592 135.701 203.32 138.429 206.685 138.429Z" fill="#F5F5F5"/>
<path d="M206.685 172.699C210.05 172.699 212.777 169.972 212.777 166.607C212.777 163.242 210.05 160.514 206.685 160.514C203.32 160.514 200.592 163.242 200.592 166.607C200.592 169.972 203.32 172.699 206.685 172.699Z" fill="#F5F5F5"/>
<path d="M307.752 144V40.7326H339.57C346.125 40.7326 351.738 42.0772 356.411 44.7664C361.117 47.4557 364.731 51.1366 367.252 55.8092C369.773 60.4818 371.034 65.8099 371.034 71.7935C371.034 77.7098 369.773 83.0043 367.252 87.6769C364.731 92.3495 361.117 96.0472 356.411 98.7701C351.738 101.459 346.141 102.804 339.62 102.804H312.19V96.9548H339.469C344.78 96.9548 349.318 95.8791 353.083 93.7277C356.848 91.5427 359.739 88.5677 361.756 84.8027C363.773 81.0042 364.781 76.6677 364.781 71.7935C364.781 66.8856 363.773 62.5323 361.756 58.7338C359.739 54.9352 356.831 51.9602 353.033 49.8088C349.268 47.6574 344.73 46.5817 339.418 46.5817H314.055V144H307.752ZM380.728 144H374.072L411.335 40.7326H418.596L455.859 144H449.203L415.217 48.8508H414.713L380.728 144ZM390.157 105.123H439.774V110.973H390.157V105.123ZM475.121 40.7326H481.978L521.762 134.924H522.468L562.253 40.7326H569.11V144H563.059V55.7084H562.454L525.09 144H519.14L481.777 55.7084H481.171V144H475.121V40.7326ZM605.251 40.7326V144H598.948V40.7326H605.251ZM674.924 111.729H682.185L697.211 131.545L698.623 133.461L713.851 153.681H706.59L694.085 137.092L692.774 135.277L674.924 111.729ZM717.28 92.3663C717.28 103.022 715.431 112.334 711.733 120.301C708.035 128.234 702.892 134.403 696.304 138.806C689.748 143.21 682.185 145.412 673.613 145.412C665.007 145.412 657.41 143.21 650.822 138.806C644.266 134.369 639.14 128.184 635.442 120.251C631.745 112.284 629.896 102.989 629.896 92.3663C629.896 81.7101 631.745 72.4154 635.442 64.4821C639.174 56.5487 644.317 50.3803 650.872 45.9766C657.427 41.5393 665.007 39.3207 673.613 39.3207C682.185 39.3207 689.748 41.5225 696.304 45.9262C702.892 50.3298 708.035 56.5151 711.733 64.4821C715.431 72.4154 717.28 81.7101 717.28 92.3663ZM711.128 92.3663C711.128 82.7858 709.515 74.4827 706.287 67.457C703.094 60.4314 698.673 55.0024 693.026 51.1702C687.379 47.3044 680.908 45.3715 673.613 45.3715C666.318 45.3715 659.847 47.2876 654.2 51.1198C648.552 54.9184 644.115 60.3473 640.888 67.4066C637.695 74.4323 636.098 82.7522 636.098 92.3663C636.098 101.88 637.678 110.166 640.838 117.225C644.031 124.251 648.452 129.697 654.099 133.562C659.746 137.428 666.251 139.361 673.613 139.361C680.908 139.361 687.379 137.445 693.026 133.613C698.673 129.747 703.094 124.301 706.287 117.276C709.515 110.25 711.128 101.947 711.128 92.3663Z" fill="#EB4F31"/>
<path d="M411.955 242V189.636H428.855C432.571 189.636 435.673 190.31 438.162 191.656C440.668 192.986 442.551 194.835 443.812 197.205C445.091 199.557 445.73 202.259 445.73 205.31C445.73 208.361 445.091 211.054 443.812 213.389C442.551 215.724 440.676 217.548 438.188 218.861C435.699 220.173 432.614 220.83 428.932 220.83H414.537V216.457H428.804C431.531 216.457 433.798 216.006 435.605 215.102C437.429 214.199 438.784 212.912 439.67 211.241C440.574 209.571 441.026 207.594 441.026 205.31C441.026 203.026 440.574 201.031 439.67 199.327C438.767 197.605 437.403 196.276 435.58 195.338C433.773 194.401 431.489 193.932 428.727 193.932H416.736V242H411.955ZM435.043 218.375L447.929 242H442.406L429.648 218.375H435.043ZM471.886 242.818C468.222 242.818 465.051 241.966 462.375 240.261C459.699 238.54 457.628 236.162 456.162 233.128C454.713 230.077 453.989 226.565 453.989 222.594C453.989 218.639 454.713 215.128 456.162 212.06C457.628 208.974 459.648 206.562 462.222 204.824C464.813 203.068 467.804 202.19 471.196 202.19C473.327 202.19 475.381 202.582 477.358 203.366C479.335 204.134 481.108 205.318 482.676 206.92C484.261 208.506 485.514 210.509 486.435 212.929C487.355 215.332 487.815 218.179 487.815 221.469V223.719H457.134V219.705H483.162C483.162 217.182 482.651 214.915 481.628 212.903C480.622 210.875 479.216 209.273 477.409 208.097C475.619 206.92 473.548 206.332 471.196 206.332C468.707 206.332 466.517 206.997 464.625 208.327C462.733 209.656 461.25 211.412 460.176 213.594C459.119 215.776 458.582 218.162 458.565 220.753V223.156C458.565 226.276 459.102 229.003 460.176 231.338C461.267 233.656 462.81 235.455 464.804 236.733C466.798 238.011 469.159 238.651 471.886 238.651C473.744 238.651 475.372 238.361 476.77 237.781C478.185 237.202 479.369 236.426 480.324 235.455C481.295 234.466 482.028 233.384 482.523 232.207L486.844 233.614C486.247 235.267 485.267 236.793 483.903 238.19C482.557 239.588 480.869 240.713 478.841 241.565C476.83 242.401 474.511 242.818 471.886 242.818ZM513.185 242.818C509.674 242.818 506.614 241.94 504.006 240.185C501.415 238.429 499.404 236.026 497.972 232.974C496.54 229.923 495.825 226.446 495.825 222.543C495.825 218.605 496.549 215.102 497.998 212.034C499.464 208.966 501.492 206.562 504.083 204.824C506.674 203.068 509.683 202.19 513.109 202.19C515.734 202.19 518.112 202.702 520.242 203.724C522.373 204.73 524.129 206.153 525.509 207.994C526.907 209.818 527.785 211.949 528.143 214.386H523.54C523.063 212.17 521.913 210.278 520.089 208.71C518.282 207.125 515.981 206.332 513.185 206.332C510.68 206.332 508.464 207.014 506.538 208.378C504.612 209.724 503.103 211.608 502.012 214.028C500.938 216.432 500.401 219.219 500.401 222.389C500.401 225.577 500.93 228.398 501.987 230.852C503.043 233.29 504.526 235.199 506.435 236.58C508.362 237.96 510.612 238.651 513.185 238.651C514.924 238.651 516.509 238.327 517.941 237.679C519.39 237.014 520.6 236.077 521.572 234.866C522.56 233.656 523.225 232.216 523.566 230.545H528.168C527.827 232.915 526.984 235.028 525.637 236.886C524.308 238.727 522.577 240.176 520.447 241.233C518.333 242.29 515.913 242.818 513.185 242.818ZM553.187 242.818C549.795 242.818 546.795 241.957 544.187 240.236C541.596 238.514 539.567 236.136 538.102 233.102C536.636 230.051 535.903 226.531 535.903 222.543C535.903 218.52 536.636 214.983 538.102 211.932C539.567 208.864 541.596 206.477 544.187 204.773C546.795 203.051 549.795 202.19 553.187 202.19C556.579 202.19 559.57 203.051 562.161 204.773C564.752 206.494 566.781 208.881 568.246 211.932C569.729 214.983 570.471 218.52 570.471 222.543C570.471 226.531 569.738 230.051 568.272 233.102C566.806 236.136 564.769 238.514 562.161 240.236C559.57 241.957 556.579 242.818 553.187 242.818ZM553.187 238.651C555.914 238.651 558.224 237.918 560.116 236.452C562.008 234.986 563.44 233.034 564.411 230.597C565.4 228.159 565.894 225.474 565.894 222.543C565.894 219.611 565.4 216.918 564.411 214.463C563.44 212.009 562.008 210.04 560.116 208.557C558.224 207.074 555.914 206.332 553.187 206.332C550.477 206.332 548.167 207.074 546.258 208.557C544.366 210.04 542.925 212.009 541.937 214.463C540.965 216.918 540.479 219.611 540.479 222.543C540.479 225.474 540.965 228.159 541.937 230.597C542.925 233.034 544.366 234.986 546.258 236.452C548.15 237.918 550.46 238.651 553.187 238.651ZM580.462 242V202.727H584.885V208.761H585.217C586.001 206.784 587.365 205.19 589.308 203.98C591.268 202.753 593.484 202.139 595.956 202.139C596.331 202.139 596.749 202.148 597.209 202.165C597.669 202.182 598.053 202.199 598.359 202.216V206.844C598.155 206.81 597.797 206.759 597.286 206.69C596.774 206.622 596.22 206.588 595.624 206.588C593.578 206.588 591.754 207.023 590.152 207.892C588.567 208.744 587.314 209.929 586.393 211.446C585.473 212.963 585.013 214.693 585.013 216.636V242H580.462ZM619.07 242.818C615.848 242.818 613.027 241.966 610.607 240.261C608.186 238.557 606.294 236.179 604.93 233.128C603.584 230.077 602.911 226.523 602.911 222.466C602.911 218.426 603.584 214.889 604.93 211.855C606.294 208.804 608.195 206.435 610.632 204.747C613.07 203.043 615.908 202.19 619.146 202.19C621.533 202.19 623.518 202.616 625.104 203.469C626.689 204.304 627.959 205.344 628.913 206.588C629.868 207.832 630.609 209.043 631.138 210.219H631.547V189.636H636.124V242H631.675V234.713H631.138C630.609 235.906 629.859 237.134 628.888 238.395C627.916 239.639 626.629 240.687 625.027 241.54C623.442 242.392 621.456 242.818 619.07 242.818ZM619.607 238.651C622.146 238.651 624.311 237.96 626.101 236.58C627.891 235.182 629.254 233.264 630.192 230.827C631.146 228.372 631.624 225.56 631.624 222.389C631.624 219.253 631.155 216.483 630.217 214.08C629.28 211.659 627.916 209.767 626.126 208.403C624.337 207.023 622.163 206.332 619.607 206.332C616.982 206.332 614.766 207.048 612.959 208.48C611.169 209.895 609.805 211.812 608.868 214.233C607.947 216.653 607.487 219.372 607.487 222.389C607.487 225.44 607.956 228.193 608.893 230.648C609.831 233.102 611.195 235.054 612.984 236.503C614.791 237.935 616.999 238.651 619.607 238.651ZM664.964 242.818C661.3 242.818 658.129 241.966 655.453 240.261C652.777 238.54 650.706 236.162 649.24 233.128C647.791 230.077 647.067 226.565 647.067 222.594C647.067 218.639 647.791 215.128 649.24 212.06C650.706 208.974 652.726 206.562 655.3 204.824C657.891 203.068 660.882 202.19 664.274 202.19C666.405 202.19 668.459 202.582 670.436 203.366C672.413 204.134 674.186 205.318 675.754 206.92C677.339 208.506 678.592 210.509 679.513 212.929C680.433 215.332 680.893 218.179 680.893 221.469V223.719H650.212V219.705H676.24C676.24 217.182 675.729 214.915 674.706 212.903C673.7 210.875 672.294 209.273 670.487 208.097C668.697 206.92 666.626 206.332 664.274 206.332C661.786 206.332 659.595 206.997 657.703 208.327C655.811 209.656 654.328 211.412 653.254 213.594C652.197 215.776 651.661 218.162 651.643 220.753V223.156C651.643 226.276 652.18 229.003 653.254 231.338C654.345 233.656 655.888 235.455 657.882 236.733C659.876 238.011 662.237 238.651 664.964 238.651C666.822 238.651 668.45 238.361 669.848 237.781C671.263 237.202 672.447 236.426 673.402 235.455C674.374 234.466 675.107 233.384 675.601 232.207L679.922 233.614C679.325 235.267 678.345 236.793 676.982 238.19C675.635 239.588 673.947 240.713 671.919 241.565C669.908 242.401 667.589 242.818 664.964 242.818ZM690.923 242V202.727H695.346V208.761H695.678C696.462 206.784 697.826 205.19 699.769 203.98C701.729 202.753 703.945 202.139 706.417 202.139C706.792 202.139 707.21 202.148 707.67 202.165C708.13 202.182 708.513 202.199 708.82 202.216V206.844C708.616 206.81 708.258 206.759 707.746 206.69C707.235 206.622 706.681 206.588 706.085 206.588C704.039 206.588 702.215 207.023 700.613 207.892C699.028 208.744 697.775 209.929 696.854 211.446C695.934 212.963 695.474 214.693 695.474 216.636V242H690.923Z" fill="#818587"/>
<path d="M387.135 190.434L368.789 202.266V198.684C368.789 193.908 364.882 190 360.105 190H316.684C311.908 190 308 193.908 308 198.684V233.421C308 238.197 311.908 242.105 316.684 242.105H360.105C364.882 242.105 368.789 238.197 368.789 233.421V229.839L387.135 241.671C389.197 242.757 390.5 240.911 390.5 239.826V192.171C390.5 191.086 389.306 189.132 387.135 190.434ZM364.447 233.421C364.447 235.809 362.493 237.763 360.105 237.763H316.684C314.296 237.763 312.342 235.809 312.342 233.421V198.684C312.342 196.296 314.296 194.342 316.684 194.342H360.105C362.493 194.342 364.447 196.296 364.447 198.684V233.421ZM386.158 235.918L368.789 224.737V207.368L386.158 196.188V235.918Z" fill="#818587"/>
<path d="M324 199.5C327.038 199.5 329.5 201.962 329.5 205C329.5 208.038 327.038 210.5 324 210.5C320.962 210.5 318.5 208.038 318.5 205C318.5 201.962 320.962 199.5 324 199.5Z" stroke="#818587" stroke-width="4" stroke-linecap="round" stroke-linejoin="round"/>
<defs>
<linearGradient id="paint0_linear_0_1" x1="64.2801" y1="81.3103" x2="299.99" y2="311.751" gradientUnits="userSpaceOnUse">
<stop stop-color="#FF2129"/>
<stop offset="1" stop-color="#FFE700"/>
</linearGradient>
</defs>
</svg>
